{
  "accessors": [
    {
      "bufferView": 2,
      "componentType": 5126,
      "count": 4288,
      "max": [
        3.0529165267944336,
        15.789821624755859,
        14.714950561523438
      ],
      "min": [
        -6.3304686546325684,
        5.0244855880737305,
        12.002769470214844
      ],
      "type": "VEC3"
    },
    {
      "bufferView": 2,
      "byteOffset": 51456,
      "componentType": 5126,
      "count": 4288,
      "max": [
        1,
        1,
        1
      ],
      "min": [
        -1,
        -1,
        -1
      ],
      "type": "VEC3"
    },
    {
      "bufferView": 0,
      "componentType": 5125,
      "count": 25128,
      "max": [
        4287
      ],
      "min": [
        0
      ],
      "type": "SCALAR"
    },
    {
      "bufferView": 2,
      "byteOffset": 102912,
      "componentType": 5126,
      "count": 192,
      "max": [
        -1.5629260540008545,
        10.47905445098877,
        12.002769470214844
      ],
      "min": [
        -1.7146258354187012,
        10.32735538482666,
        3.970890998840332
      ],
      "type": "VEC3"
    },
    {
      "bufferView": 2,
      "byteOffset": 105216,
      "componentType": 5126,
      "count": 192,
      "max": [
        0.99999856948852539,
        0.99999868869781494,
        0.69624340534210205
      ],
      "min": [
        -0.99999856948852539,
        -0.99999797344207764,
        0.00079349469160661101
      ],
      "type": "VEC3"
    },
    {
      "bufferView": 0,
      "byteOffset": 100512,
      "componentType": 5125,
      "count": 954,
      "max": [
        191
      ],
      "min": [
        0
      ],
      "type": "SCALAR"
    },
    {
      "bufferView": 2,
      "byteOffset": 107520,
      "componentType": 5126,
      "count": 12719,
      "max": [
        9.3656501770019531,
        15.316656112670898,
        15.017854690551758
      ],
      "min": [
        -1.8265506029129028,
        4.350776195526123,
        12.209038734436035
      ],
      "type": "VEC3"
    },
    {
      "bufferView": 2,
      "byteOffset": 260148,
      "componentType": 5126,
      "count": 12719,
      "max": [
        0.99999988079071045,
        0.99999988079071045,
        1
      ],
      "min": [
        -0.99999988079071045,
        -0.99999988079071045,
        -0.013153853826224804
      ],
      "type": "VEC3"
    },
    {
      "bufferView": 1,
      "componentType": 5126,
      "count": 12719,
      "max": [
        0.97984600067138672,
        1.0168423652648926
      ],
      "min": [
        0,
        0
      ],
      "type": "VEC2"
    },
    {
      "bufferView": 0,
      "byteOffset": 104328,
      "componentType": 5125,
      "count": 71232,
      "max": [
        12718
      ],
      "min": [
        0
      ],
      "type": "SCALAR"
    },
    {
      "bufferView": 2,
      "byteOffset": 412776,
      "componentType": 5126,
      "count": 3976,
      "max": [
        0.075533866882324219,
        11.672126770019531,
        11.824995040893555
      ],
      "min": [
        -3.5987753868103027,
        4.0438008308410645,
        3.733309268951416
      ],
      "type": "VEC3"
    },
    {
      "bufferView": 2,
      "byteOffset": 460488,
      "componentType": 5126,
      "count": 3976,
      "max": [
        1,
        0.99988949298858643,
        0.99942433834075928
      ],
      "min": [
        -1,
        -0.99989032745361328,
        -0.99942421913146973
      ],
      "type": "VEC3"
    },
    {
      "bufferView": 1,
      "byteOffset": 101752,
      "componentType": 5126,
      "count": 3976,
      "max": [
        1,
        1
      ],
      "min": [
        0,
        0
      ],
      "type": "VEC2"
    },
    {
      "bufferView": 0,
      "byteOffset": 389256,
      "componentType": 5125,
      "count": 15192,
      "max": [
        3975
      ],
      "min": [
        0
      ],
      "type": "SCALAR"
    },
    {
      "bufferView": 2,
      "byteOffset": 508200,
      "componentType": 5126,
      "count": 3306,
      "max": [
        -0.30612674355506897,
        13.42437744140625,
        7.313631534576416
      ],
      "min": [
        -3.2171156406402588,
        6.2999763488769531,
        3.5766408443450928
      ],
      "type": "VEC3"
    },
    {
      "bufferView": 2,
      "byteOffset": 547872,
      "componentType": 5126,
      "count": 3306,
      "max": [
        0.77564197778701782,
        0.99957787990570068,
        0.99980568885803223
      ],
      "min": [
        -0.77565675973892212,
        -0.99961090087890625,
        -0.99982726573944092
      ],
      "type": "VEC3"
    },
    {
      "bufferView": 0,
      "byteOffset": 450024,
      "componentType": 5125,
      "count": 19824,
      "max": [
        3305
      ],
      "min": [
        0
      ],
      "type": "SCALAR"
    },
    {
      "bufferView": 2,
      "byteOffset": 587544,
      "componentType": 5126,
      "count": 1186,
      "max": [
        3.9423871040344238,
        4.4616580009460449,
        -8.8764467239379883
      ],
      "min": [
        0.22114682197570801,
        0.57152068614959717,
        -10.753402709960938
      ],
      "type": "VEC3"
    },
    {
      "bufferView": 2,
      "byteOffset": 601776,
      "componentType": 5126,
      "count": 1186,
      "max": [
        1,
        1,
        1
      ],
      "min": [
        -1,
        -1,
        -1
      ],
      "type": "VEC3"
    },
    {
      "bufferView": 1,
      "byteOffset": 133560,
      "componentType": 5126,
      "count": 1186,
      "max": [
        0.5,
        1
      ],
      "min": [
        0,
        0
      ],
      "type": "VEC2"
    },
    {
      "bufferView": 0,
      "byteOffset": 529320,
      "componentType": 5125,
      "count": 2208,
      "max": [
        1185
      ],
      "min": [
        0
      ],
      "type": "SCALAR"
    },
    {
      "bufferView": 2,
      "byteOffset": 616008,
      "componentType": 5126,
      "count": 4783,
      "max": [
        -9.0136337280273438,
        0.79460161924362183,
        4.1035013198852539
      ],
      "min": [
        -10.617956161499023,
        -2.4736745357513428,
        4.0510067939758301
      ],
      "type": "VEC3"
    },
    {
      "bufferView": 2,
      "byteOffset": 673404,
      "componentType": 5126,
      "count": 4783,
      "max": [
        1,
        1,
        1
      ],
      "min": [
        -1,
        -1,
        -1
      ],
      "type": "VEC3"
    },
    {
      "bufferView": 1,
      "byteOffset": 143048,
      "componentType": 5126,
      "count": 4783,
      "max": [
        0.40000009536743164,
        1.0000002384185791
      ],
      "min": [
        0.39063671231269836,
        0
      ],
      "type": "VEC2"
    },
    {
      "bufferView": 0,
      "byteOffset": 538152,
      "componentType": 5125,
      "count": 22416,
      "max": [
        4782
      ],
      "min": [
        0
      ],
      "type": "SCALAR"
    },
    {
      "bufferView": 3,
      "componentType": 5126,
      "count": 196,
      "max": [
        4.0833334922790527
      ],
      "min": [
        0
      ],
      "type": "SCALAR"
    },
    {
      "bufferView": 4,
      "componentType": 5126,
      "count": 196,
      "max": [
        0,
        69.957939147949219,
        0
      ],
      "min": [
        0,
        -11.675203323364258,
        0
      ],
      "type": "VEC3"
    },
    {
      "bufferView": 3,
      "byteOffset": 784,
      "componentType": 5126,
      "count": 1,
      "max": [
        0
      ],
      "min": [
        0
      ],
      "type": "SCALAR"
    },
    {
      "bufferView": 4,
      "byteOffset": 2352,
      "componentType": 5126,
      "count": 1,
      "max": [
        0,
        48.424957275390625,
        0
      ],
      "min": [
        0,
        48.424957275390625,
        0
      ],
      "type": "VEC3"
    },
    {
      "bufferView": 3,
      "byteOffset": 788,
      "componentType": 5126,
      "count": 1,
      "max": [
        0
      ],
      "min": [
        0
      ],
      "type": "SCALAR"
    },
    {
      "bufferView": 4,
      "byteOffset": 2364,
      "componentType": 5126,
      "count": 1,
      "max": [
        0,
        48.424957275390625,
        0
      ],
      "min": [
        0,
        48.424957275390625,
        0
      ],
      "type": "VEC3"
    },
    {
      "bufferView": 3,
      "byteOffset": 792,
      "componentType": 5126,
      "count": 2,
      "max": [
        0.041666667908430099
      ],
      "min": [
        0
      ],
      "type": "SCALAR"
    },
    {
      "bufferView": 4,
      "byteOffset": 2376,
      "componentType": 5126,
      "count": 2,
      "max": [
        286.80426025390625,
        -3.4231452941894531,
        -1029.1802978515625
      ],
      "min": [
        -270.36459350585938,
        -163.62690734863281,
        -1321.015869140625
      ],
      "type": "VEC3"
    },
    {
      "bufferView": 3,
      "byteOffset": 800,
      "componentType": 5126,
      "count": 2,
      "max": [
        0.041666667908430099
      ],
      "min": [
        0
      ],
      "type": "SCALAR"
    },
    {
      "bufferView": 4,
      "byteOffset": 2400,
      "componentType": 5126,
      "count": 2,
      "max": [
        100,
        100.00000762939453,
        100
      ],
      "min": [
        99.999992370605469,
        100,
        99.999992370605469
      ],
      "type": "VEC3"
    },
    {
      "bufferView": 3,
      "byteOffset": 808,
      "componentType": 5126,
      "count": 2,
      "max": [
        0.041666667908430099
      ],
      "min": [
        0
      ],
      "type": "SCALAR"
    },
    {
      "bufferView": 5,
      "componentType": 5126,
      "count": 2,
      "max": [
        -0.76817500591278076,
        0.14607155323028564,
        0.16842252016067505,
        0.62047839164733887
      ],
      "min": [
        -0.78109675645828247,
        -0.07461780309677124,
        -0.059806440025568008,
        0.59661877155303955
      ],
      "type": "VEC4"
    },
    {
      "bufferView": 3,
      "byteOffset": 816,
      "componentType": 5126,
      "count": 2,
      "max": [
        0.041666667908430099
      ],
      "min": [
        0
      ],
      "type": "SCALAR"
    },
    {
      "bufferView": 4,
      "byteOffset": 2424,
      "componentType": 5126,
      "count": 2,
      "max": [
        286.80426025390625,
        -3.4231452941894531,
        -1029.1802978515625
      ],
      "min": [
        -270.36459350585938,
        -163.62690734863281,
        -1321.015869140625
      ],
      "type": "VEC3"
    },
    {
      "bufferView": 3,
      "byteOffset": 824,
      "componentType": 5126,
      "count": 2,
      "max": [
        0.041666667908430099
      ],
      "min": [
        0
      ],
      "type": "SCALAR"
    },
    {
      "bufferView": 4,
      "byteOffset": 2448,
      "componentType": 5126,
      "count": 2,
      "max": [
        100,
        100.00000762939453,
        100
      ],
      "min": [
        99.999992370605469,
        100,
        99.999992370605469
      ],
      "type": "VEC3"
    },
    {
      "bufferView": 3,
      "byteOffset": 832,
      "componentType": 5126,
      "count": 2,
      "max": [
        0.041666667908430099
      ],
      "min": [
        0
      ],
      "type": "SCALAR"
    },
    {
      "bufferView": 5,
      "byteOffset": 32,
      "componentType": 5126,
      "count": 2,
      "max": [
        -0.76817500591278076,
        0.14607155323028564,
        0.16842252016067505,
        0.62047839164733887
      ],
      "min": [
        -0.78109675645828247,
        -0.07461780309677124,
        -0.059806440025568008,
        0.59661877155303955
      ],
      "type": "VEC4"
    }
  ],
  "animations": [
    {
      "channels": [
        {
          "sampler": 0,
          "target": {
            "node": 5,
            "path": "translation"
          }
        }
      ],
      "name": "Cylinder.002|Cube.001Action",
      "samplers": [
        {
          "input": 25,
          "interpolation": "LINEAR",
          "output": 26
        }
      ]
    },
    {
      "channels": [
        {
          "sampler": 0,
          "target": {
            "node": 5,
            "path": "translation"
          }
        }
      ],
      "name": "Cylinder.002|CubeAction",
      "samplers": [
        {
          "input": 27,
          "interpolation": "LINEAR",
          "output": 28
        }
      ]
    },
    {
      "channels": [
        {
          "sampler": 0,
          "target": {
            "node": 5,
            "path": "translation"
          }
        }
      ],
      "name": "Cylinder.002|CubeAction.001",
      "samplers": [
        {
          "input": 29,
          "interpolation": "LINEAR",
          "output": 30
        }
      ]
    },
    {
      "channels": [
        {
          "sampler": 0,
          "target": {
            "node": 5,
            "path": "translation"
          }
        },
        {
          "sampler": 1,
          "target": {
            "node": 5,
            "path": "scale"
          }
        },
        {
          "sampler": 2,
          "target": {
            "node": 5,
            "path": "rotation"
          }
        }
      ],
      "name": "Cylinder.002|Cylinder.006Action",
      "samplers": [
        {
          "input": 31,
          "interpolation": "LINEAR",
          "output": 32
        },
        {
          "input": 33,
          "interpolation": "LINEAR",
          "output": 34
        },
        {
          "input": 35,
          "interpolation": "LINEAR",
          "output": 36
        }
      ]
    },
    {
      "channels": [
        {
          "sampler": 0,
          "target": {
            "node": 5,
            "path": "translation"
          }
        },
        {
          "sampler": 1,
          "target": {
            "node": 5,
            "path": "scale"
          }
        },
        {
          "sampler": 2,
          "target": {
            "node": 5,
            "path": "rotation"
          }
        }
      ],
      "name": "Cylinder.002|Cylinder.006Action.001",
      "samplers": [
        {
          "input": 37,
          "interpolation": "LINEAR",
          "output": 38
        },
        {
          "input": 39,
          "interpolation": "LINEAR",
          "output": 40
        },
        {
          "input": 41,
          "interpolation": "LINEAR",
          "output": 42
        }
      ]
    }
  ],
  "asset": {
    "extras": {
      "author": "Jacob.Elhatmi (https://sketchfab.com/Jacob.Elhatmi)",
      "license": "CC-BY-4.0 (http://creativecommons.org/licenses/by/4.0/)",
      "source": "https://sketchfab.com/3d-models/beach-chair-b1e7c2810f8340a982d138d0349111b5",
      "title": "Beach chair"
    },
    "generator": "Sketchfab-9.25.1",
    "version": "2.0"
  },
  "bufferViews": [
    {
      "buffer": 0,
      "byteLength": 627816,
      "byteOffset": 0,
      "name": "floatBufferViews",
      "target": 34963
    },
    {
      "buffer": 0,
      "byteLength": 181312,
      "byteOffset": 627816,
      "byteStride": 8,
      "name": "floatBufferViews",
      "target": 34962
    },
    {
      "buffer": 0,
      "byteLength": 730800,
      "byteOffset": 809128,
      "byteStride": 12,
      "name": "floatBufferViews",
      "target": 34962
    },
    {
      "buffer": 0,
      "byteLength": 840,
      "byteOffset": 1539928,
      "name": "floatBufferViews"
    },
    {
      "buffer": 0,
      "byteLength": 2472,
      "byteOffset": 1540768,
      "byteStride": 12,
      "name": "floatBufferViews"
    },
    {
      "buffer": 0,
      "byteLength": 64,
      "byteOffset": 1543240,
      "byteStride": 16,
      "name": "floatBufferViews"
    }
  ],
  "buffers": [
    {
      "byteLength": 1543304,
      "uri": "scene.bin"
    }
  ],
  "materials": [
    {
      "doubleSided": true,
      "emissiveFactor": [
        0,
        0,
        0
      ],
      "name": "Material.005",
      "pbrMetallicRoughness": {
        "baseColorFactor": [
          0.80000000000000004,
          0.80000000000000004,
          0.80000000000000004,
          1
        ],
        "metallicFactor": 0,
        "roughnessFactor": 0.83870651993157175
      }
    },
    {
      "doubleSided": true,
      "emissiveFactor": [
        0,
        0,
        0
      ],
      "name": "Material.006",
      "pbrMetallicRoughness": {
        "baseColorFactor": [
          0.80000000000000004,
          0.80000000000000004,
          0.80000000000000004,
          1
        ],
        "metallicFactor": 0,
        "roughnessFactor": 0.82111456180001685
      }
    },
    {
      "doubleSided": true,
      "emissiveFactor": [
        0,
        0,
        0
      ],
      "name": "Material.007",
      "pbrMetallicRoughness": {
        "baseColorFactor": [
          0.76180800000000004,
          0.76180800000000004,
          0.76180800000000004,
          1
        ],
        "metallicFactor": 0,
        "roughnessFactor": 0.82965455261968402
      }
    },
    {
      "doubleSided": true,
      "emissiveFactor": [
        0,
        0,
        0
      ],
      "name": "Material.001",
      "pbrMetallicRoughness": {
        "baseColorFactor": [
          0.55592600000000003,
          0.31479099999999999,
          0.20069100000000001,
          1
        ],
        "metallicFactor": 0,
        "roughnessFactor": 0.91998940000918783
      }
    },
    {
      "doubleSided": true,
      "emissiveFactor": [
        0,
        0,
        0
      ],
      "name": "Material.002",
      "pbrMetallicRoughness": {
        "baseColorFactor": [
          0.76180800000000004,
          0.76180800000000004,
          0.76180800000000004,
          1
        ],
        "metallicFactor": 0,
        "roughnessFactor": 0.82965455261968402
      }
    }
  ],
  "meshes": [
    {
      "name": "Cylinder.002_Material.005_0",
      "primitives": [
        {
          "attributes": {
            "NORMAL": 1,
            "POSITION": 0
          },
          "indices": 2,
          "material": 0,
          "mode": 4
        }
      ]
    },
    {
      "name": "Cylinder.002_Material.006_0",
      "primitives": [
        {
          "attributes": {
            "NORMAL": 4,
            "POSITION": 3
          },
          "indices": 5,
          "material": 1,
          "mode": 4
        }
      ]
    },
    {
      "name": "Circle.002_Material.007_0",
      "primitives": [
        {
          "attributes": {
            "NORMAL": 7,
            "POSITION": 6,
            "TEXCOORD_0": 8
          },
          "indices": 9,
          "material": 2,
          "mode": 4
        }
      ]
    },
    {
      "name": "Plane.008_Material.001_0",
      "primitives": [
        {
          "attributes": {
            "NORMAL": 11,
            "POSITION": 10,
            "TEXCOORD_0": 12
          },
          "indices": 13,
          "material": 3,
          "mode": 4
        }
      ]
    },
    {
      "name": "Plane.010_Material.002_0",
      "primitives": [
        {
          "attributes": {
            "NORMAL": 15,
            "POSITION": 14
          },
          "indices": 16,
          "material": 4,
          "mode": 4
        }
      ]
    },
    {
      "name": "Plane.005_Material.001_0",
      "primitives": [
        {
          "attributes": {
            "NORMAL": 18,
            "POSITION": 17,
            "TEXCOORD_0": 19
          },
          "indices": 20,
          "material": 3,
          "mode": 4
        }
      ]
    },
    {
      "name": "Plane.006_Material.001_0",
      "primitives": [
        {
          "attributes": {
            "NORMAL": 22,
            "POSITION": 21,
            "TEXCOORD_0": 23
          },
          "indices": 24,
          "material": 3,
          "mode": 4
        }
      ]
    }
  ],
  "nodes": [
    {
      "children": [
        1
      ],
      "name": "RootNode (gltf orientation matrix)",
      "rotation": [
        -0.70710678118654746,
        -0,
        -0,
        0.70710678118654757
      ]
    },
    {
      "children": [
        2
      ],
      "matrix": [
        0.0019294403027743101,
        0,
        0,
        0,
        0,
        0.0019294403027743101,
        0,
        0,
        0,
        0,
        0.0019294403027743101,
        0,
        0,
        0,
        0,
        1
      ],
      "name": "RootNode (model correction matrix)"
    },
    {
      "children": [
        3
      ],
      "matrix": [
        1,
        0,
        0,
        0,
        0,
        0,
        1,
        0,
        0,
        -1,
        0,
        0,
        0,
        0,
        0,
        1
      ],
      "name": "47a78b8df46d4fc09142c70468fb7d5a.fbx"
    },
    {
      "children": [
        4
      ],
      "name": ""
    },
    {
      "children": [
        5,
        10,
        14
      ],
      "name": "RootNode"
    },
    {
      "children": [
        6,
        7,
        8
      ],
      "name": "Cylinder.002",
      "rotation": [
        -0.76817500591278076,
        0.14607155323028564,
        -0.059806440025568008,
        0.62047839164733887
      ],
      "scale": [
        100,
        100.00000762939453,
        99.999992370605469
      ],
      "translation": [
        -270.36459350585938,
        -3.4231452941894531,
        -1029.1802978515625
      ]
    },
    {
      "mesh": 0,
      "name": "Cylinder.002_Material.005_0"
    },
    {
      "mesh": 1,
      "name": "Cylinder.002_Material.006_0"
    },
    {
      "children": [
        9
      ],
      "name": "Circle.002",
      "rotation": [
        -1.6147627945883869e-07,
        1.5424602040070567e-08,
        0.25830039381980896,
        0.96606463193893433
      ],
      "scale": [
        1,
        0.99999994039535522,
        1
      ]
    },
    {
      "mesh": 2,
      "name": "Circle.002_Material.007_0"
    },
    {
      "children": [
        11,
        12
      ],
      "name": "Plane.008",
      "rotation": [
        -0.8128318190574646,
        -0.084405772387981415,
        -0.12178812921047211,
        0.56333649158477783
      ],
      "scale": [
        100,
        100,
        100
      ]
    },
    {
      "mesh": 3,
      "name": "Plane.008_Material.001_0"
    },
    {
      "children": [
        13
      ],
      "name": "Plane.010",
      "rotation": [
        0.17838911712169647,
        2.3553395678277411e-08,
        -8.0963133086697781e-08,
        0.98396003246307373
      ],
      "scale": [
        1,
        0.99999994039535522,
        1
      ]
    },
    {
      "mesh": 4,
      "name": "Plane.010_Material.002_0"
    },
    {
      "children": [
        15,
        16
      ],
      "name": "Plane.005",
      "rotation": [
        0.079224899411201477,
        0.15218961238861084,
        0.45490133762359619,
        0.87385725975036621
      ],
      "scale": [
        100,
        100,
        100.00000762939453
      ]
    },
    {
      "mesh": 5,
      "name": "Plane.005_Material.001_0"
    },
    {
      "children": [
        17
      ],
      "name": "Plane.006",
      "rotation": [
        0.67437982559204102,
        0.21263101696968079,
        0.67437970638275146,
        -0.21263106167316437
      ]
    },
    {
      "mesh": 6,
      "name": "Plane.006_Material.001_0"
    }
  ],
  "scene": 0,
  "scenes": [
    {
      "name": "OSG_Scene",
      "nodes": [
        0
      ]
    }
  ]
}

