{
  "accessors": [
    {
      "bufferView": 2,
      "componentType": 5126,
      "count": 2755,
      "max": [
        0.8603589534759521,
        0.8603590726852417,
        1.8686189651489258
      ],
      "min": [
        -0.8603589534759521,
        -0.8603589534759521,
        -0.0031230454333126545
      ],
      "type": "VEC3"
    },
    {
      "bufferView": 2,
      "byteOffset": 33060,
      "componentType": 5126,
      "count": 2755,
      "max": [
        1.0,
        1.0,
        1.0
      ],
      "min": [
        -1.0,
        -1.0,
        -1.0
      ],
      "type": "VEC3"
    },
    {
      "bufferView": 1,
      "componentType": 5126,
      "count": 2755,
      "max": [
        0.9987139701843262,
        1.0
      ],
      "min": [
        0.0,
        0.0
      ],
      "type": "VEC2"
    },
    {
      "bufferView": 0,
      "componentType": 5125,
      "count": 10176,
      "type": "SCALAR"
    },
    {
      "bufferView": 2,
      "byteOffset": 66120,
      "componentType": 5126,
      "count": 1228,
      "max": [
        0.8598556518554688,
        0.8598557710647583,
        1.7965234518051147
      ],
      "min": [
        -0.8598556518554688,
        -0.8598556518554688,
        1.2807769775390625
      ],
      "type": "VEC3"
    },
    {
      "bufferView": 2,
      "byteOffset": 80856,
      "componentType": 5126,
      "count": 1228,
      "max": [
        0.9761290550231934,
        0.9761292934417725,
        0.9854310154914856
      ],
      "min": [
        -0.9761292338371277,
        -0.9761292338371277,
        -0.9854161143302917
      ],
      "type": "VEC3"
    },
    {
      "bufferView": 1,
      "byteOffset": 22040,
      "componentType": 5126,
      "count": 1228,
      "max": [
        0.9089239835739136,
        0.9441502094268799
      ],
      "min": [
        0.0,
        0.00017327070236206055
      ],
      "type": "VEC2"
    },
    {
      "bufferView": 0,
      "byteOffset": 40704,
      "componentType": 5125,
      "count": 4800,
      "type": "SCALAR"
    }
  ],
  "asset": {
    "extras": {
      "author": "damien59492 (https://sketchfab.com/damien59492)",
      "license": "CC-BY-4.0 (http://creativecommons.org/licenses/by/4.0/)",
      "source": "https://sketchfab.com/3d-models/beach-umbrella-bc2b553cf87142ada6a721e73d3d96b8",
      "title": "Beach umbrella"
    },
    "generator": "Sketchfab-11.20.1",
    "version": "2.0"
  },
  "bufferViews": [
    {
      "buffer": 0,
      "byteLength": 59904,
      "name": "floatBufferViews",
      "target": 34963
    },
    {
      "buffer": 0,
      "byteLength": 31864,
      "byteOffset": 59904,
      "byteStride": 8,
      "name": "floatBufferViews",
      "target": 34962
    },
    {
      "buffer": 0,
      "byteLength": 95592,
      "byteOffset": 91768,
      "byteStride": 12,
      "name": "floatBufferViews",
      "target": 34962
    }
  ],
  "buffers": [
    {
      "byteLength": 187360,
      "uri": "scene.bin"
    }
  ],
  "materials": [
    {
      "doubleSided": true,
      "name": "Material.003",
      "pbrMetallicRoughness": {
        "baseColorFactor": [
          0.8,
          0.8,
          0.8,
          1.0
        ],
        "metallicFactor": 0.0,
        "roughnessFactor": 0.8211145618
      }
    },
    {
      "doubleSided": true,
      "name": "Material.004",
      "pbrMetallicRoughness": {
        "baseColorFactor": [
          0.8,
          0.00210917,
          0.0,
          1.0
        ],
        "metallicFactor": 0.0,
        "roughnessFactor": 0.9616316498
      }
    }
  ],
  "meshes": [
    {
      "name": "Parasol_Material.003_0",
      "primitives": [
        {
          "attributes": {
            "NORMAL": 1,
            "POSITION": 0,
            "TEXCOORD_0": 2
          },
          "indices": 3,
          "material": 0,
          "mode": 4
        }
      ]
    },
    {
      "name": "Parasol_Material.004_0",
      "primitives": [
        {
          "attributes": {
            "NORMAL": 5,
            "POSITION": 4,
            "TEXCOORD_0": 6
          },
          "indices": 7,
          "material": 1,
          "mode": 4
        }
      ]
    }
  ],
  "nodes": [
    {
      "children": [
        1
      ],
      "matrix": [
        1.0,
        0.0,
        0.0,
        0.0,
        0.0,
        2.220446049250313e-16,
        -1.0,
        0.0,
        0.0,
        1.0,
        2.220446049250313e-16,
        0.0,
        0.0,
        0.0,
        0.0,
        1.0
      ],
      "name": "Sketchfab_model"
    },
    {
      "children": [
        2
      ],
      "matrix": [
        1.0,
        0.0,
        0.0,
        0.0,
        0.0,
        0.0,
        1.0,
        0.0,
        0.0,
        -1.0,
        0.0,
        0.0,
        0.0,
        0.0,
        0.0,
        1.0
      ],
      "name": "63081977bfa942eca2dab56c6fa3cf9b.fbx"
    },
    {
      "children": [
        3
      ],
      "name": "RootNode"
    },
    {
      "children": [
        4,
        5
      ],
      "matrix": [
        373.8081359863281,
        0.0,
        0.0,
        0.0,
        0.0,
        -6.090107547708668e-05,
        -373.8081359863232,
        0.0,
        0.0,
        373.8081359863232,
        -6.090107547708668e-05,
        0.0,
        0.0,
        -4.76837158203125e-05,
        498.67559814453125,
        1.0
      ],
      "name": "Parasol"
    },
    {
      "mesh": 0,
      "name": "Parasol_Material.003_0"
    },
    {
      "mesh": 1,
      "name": "Parasol_Material.004_0"
    }
  ],
  "scene": 0,
  "scenes": [
    {
      "name": "Sketchfab_Scene",
      "nodes": [
        0
      ]
    }
  ]
}
